<svg xmlns="http://www.w3.org/2000/svg" style="display:none">
  <symbol id="icon-search" viewBox="0 0 24 24">
    <circle cx="11" cy="11" r="6" stroke="currentColor" stroke-width="2" fill="none"/>
    <path d="M16 16L21 21" stroke="currentColor" stroke-width="2" stroke-linecap="round"/>
  </symbol>
  <symbol id="icon-home" viewBox="0 0 24 24">
    <path d="M4 11L12 5L20 11V19H4V11Z" stroke="currentColor" stroke-width="2" fill="none" stroke-linejoin="round"/>
    <path d="M9 19V13H15V19" stroke="currentColor" stroke-width="2" fill="none"/>
  </symbol>
  <symbol id="icon-chart" viewBox="0 0 24 24">
    <path d="M4 19H20" stroke="currentColor" stroke-width="2" stroke-linecap="round"/>
    <path d="M6 15L10 11L14 13L19 8" stroke="currentColor" stroke-width="2" fill="none" stroke-linecap="round" stroke-linejoin="round"/>
  </symbol>
  <symbol id="icon-shield" viewBox="0 0 24 24">
    <path d="M12 4L19 7V12C19 16 15.5 19.5 12 20.5C8.5 19.5 5 16 5 12V7L12 4Z" stroke="currentColor" stroke-width="2" fill="none" stroke-linejoin="round"/>
  </symbol>
  <symbol id="icon-list" viewBox="0 0 24 24">
    <path d="M7 7H20" stroke="currentColor" stroke-width="2" stroke-linecap="round"/>
    <path d="M7 12H20" stroke="currentColor" stroke-width="2" stroke-linecap="round"/>
    <path d="M7 17H16" stroke="currentColor" stroke-width="2" stroke-linecap="round"/>
    <circle cx="4" cy="7" r="1.5" fill="currentColor"/>
    <circle cx="4" cy="12" r="1.5" fill="currentColor"/>
    <circle cx="4" cy="17" r="1.5" fill="currentColor"/>
  </symbol>
  <symbol id="icon-rocket" viewBox="0 0 24 24">
    <path d="M14 4C9 5 6 9 5 14L10 19C15 18 19 15 20 10C18.5 6.5 16.5 4.5 14 4Z" stroke="currentColor" stroke-width="2" fill="none" stroke-linejoin="round"/>
    <circle cx="14.5" cy="9.5" r="2" fill="currentColor"/>
    <path d="M5 14L4 20L10 19" stroke="currentColor" stroke-width="2" fill="none" stroke-linejoin="round"/>
  </symbol>
  <symbol id="icon-leaf" viewBox="0 0 24 24">
    <path d="M5 18C12 18 18 12 18 5C10 5 5 10 5 18Z" stroke="currentColor" stroke-width="2" fill="none" stroke-linejoin="round"/>
    <path d="M8 15L18 5" stroke="currentColor" stroke-width="2" stroke-linecap="round"/>
  </symbol>
  <symbol id="icon-compass" viewBox="0 0 24 24">
    <circle cx="12" cy="12" r="8" stroke="currentColor" stroke-width="2" fill="none"/>
    <path d="M10 10L15 9L14 14L9 15L10 10Z" fill="currentColor"/>
  </symbol>
  <symbol id="icon-handshake" viewBox="0 0 24 24">
    <path d="M8 12L11 9L13 11L15 9L18 12" stroke="currentColor" stroke-width="2" fill="none" stroke-linecap="round" stroke-linejoin="round"/>
    <path d="M3 12L7 16H11" stroke="currentColor" stroke-width="2" fill="none" stroke-linecap="round"/>
    <path d="M21 12L17 16H13" stroke="currentColor" stroke-width="2" fill="none" stroke-linecap="round"/>
  </symbol>
  <symbol id="icon-telescope" viewBox="0 0 24 24">
    <path d="M4 14L16 9L19 13L7 18L4 14Z" stroke="currentColor" stroke-width="2" fill="none" stroke-linejoin="round"/>
    <path d="M12 16L14 20" stroke="currentColor" stroke-width="2" stroke-linecap="round"/>
    <circle cx="18" cy="10" r="2" fill="currentColor"/>
  </symbol>
  <symbol id="icon-target" viewBox="0 0 24 24">
    <circle cx="12" cy="12" r="8" stroke="currentColor" stroke-width="2" fill="none"/>
    <circle cx="12" cy="12" r="4" stroke="currentColor" stroke-width="2" fill="none"/>
    <circle cx="12" cy="12" r="1.5" fill="currentColor"/>
  </symbol>
  <symbol id="icon-question" viewBox="0 0 24 24">
    <circle cx="12" cy="12" r="9" stroke="currentColor" stroke-width="2" fill="none"/>
    <path d="M9.5 9.5C9.5 8.1 10.6 7 12 7C13.4 7 14.5 8.1 14.5 9.5C14.5 10.7 13.7 11.4 12.7 12.1C12.2 12.5 12 12.8 12 13.5" stroke="currentColor" stroke-width="2" fill="none" stroke-linecap="round"/>
    <circle cx="12" cy="17" r="1" fill="currentColor"/>
  </symbol>
  <symbol id="icon-pin" viewBox="0 0 24 24">
    <path d="M12 4C8.7 4 6 6.7 6 10C6 14 12 20 12 20C12 20 18 14 18 10C18 6.7 15.3 4 12 4Z" stroke="currentColor" stroke-width="2" fill="none"/>
    <circle cx="12" cy="10" r="2.5" fill="currentColor"/>
  </symbol>
  <symbol id="icon-laptop" viewBox="0 0 24 24">
    <rect x="5" y="6" width="14" height="10" rx="2" stroke="currentColor" stroke-width="2" fill="none"/>
    <path d="M3 18H21" stroke="currentColor" stroke-width="2" stroke-linecap="round"/>
  </symbol>
  <symbol id="icon-globe" viewBox="0 0 24 24">
    <circle cx="12" cy="12" r="8" stroke="currentColor" stroke-width="2" fill="none"/>
    <path d="M4 12H20" stroke="currentColor" stroke-width="2"/>
    <path d="M12 4C9.5 6.5 9.5 17.5 12 20C14.5 17.5 14.5 6.5 12 4Z" stroke="currentColor" stroke-width="2" fill="none"/>
  </symbol>
  <symbol id="icon-brain" viewBox="0 0 24 24">
    <path d="M9 7C9 5.9 9.9 5 11 5C12.1 5 13 5.9 13 7" stroke="currentColor" stroke-width="2" fill="none"/>
    <path d="M7 9C5.9 9 5 9.9 5 11C5 12.1 5.9 13 7 13" stroke="currentColor" stroke-width="2" fill="none"/>
    <path d="M17 9C18.1 9 19 9.9 19 11C19 12.1 18.1 13 17 13" stroke="currentColor" stroke-width="2" fill="none"/>
    <path d="M9 17C9 18.1 9.9 19 11 19C12.1 19 13 18.1 13 17" stroke="currentColor" stroke-width="2" fill="none"/>
    <path d="M9 7H15C16.7 7 18 8.3 18 10V14C18 15.7 16.7 17 15 17H9C7.3 17 6 15.7 6 14V10C6 8.3 7.3 7 9 7Z" stroke="currentColor" stroke-width="2" fill="none"/>
  </symbol>
  <symbol id="icon-book" viewBox="0 0 24 24">
    <path d="M6 6H14C15.7 6 17 7.3 17 9V19H9C7.3 19 6 17.7 6 16V6Z" stroke="currentColor" stroke-width="2" fill="none"/>
    <path d="M17 19H18" stroke="currentColor" stroke-width="2" stroke-linecap="round"/>
    <path d="M8 9H14" stroke="currentColor" stroke-width="2" stroke-linecap="round"/>
  </symbol>
  <symbol id="icon-trophy" viewBox="0 0 24 24">
    <path d="M7 5H17V9C17 12 14.5 14 12 14C9.5 14 7 12 7 9V5Z" stroke="currentColor" stroke-width="2" fill="none"/>
    <path d="M9 19H15" stroke="currentColor" stroke-width="2" stroke-linecap="round"/>
    <path d="M12 14V19" stroke="currentColor" stroke-width="2"/>
    <path d="M4 6H7V9C7 10.7 5.7 12 4 12" stroke="currentColor" stroke-width="2" fill="none"/>
    <path d="M20 6H17V9C17 10.7 18.3 12 20 12" stroke="currentColor" stroke-width="2" fill="none"/>
  </symbol>
  <symbol id="icon-building" viewBox="0 0 24 24">
    <rect x="6" y="4" width="12" height="16" rx="2" stroke="currentColor" stroke-width="2" fill="none"/>
    <path d="M9 8H11V10H9V8Z" fill="currentColor"/>
    <path d="M13 8H15V10H13V8Z" fill="currentColor"/>
    <path d="M9 12H11V14H9V12Z" fill="currentColor"/>
    <path d="M13 12H15V14H13V12Z" fill="currentColor"/>
  </symbol>
  <symbol id="icon-swap" viewBox="0 0 24 24">
    <path d="M7 7H18L15 4" stroke="currentColor" stroke-width="2" fill="none" stroke-linecap="round" stroke-linejoin="round"/>
    <path d="M17 17H6L9 20" stroke="currentColor" stroke-width="2" fill="none" stroke-linecap="round" stroke-linejoin="round"/>
  </symbol>
  <symbol id="icon-wrench" viewBox="0 0 24 24">
    <path d="M14 5C12.9 6.1 12.9 7.9 14 9L7 16L5 14L12 7C10.9 5.9 10.9 4.1 12 3C13.1 1.9 14.9 1.9 16 3L14 5Z" stroke="currentColor" stroke-width="2" fill="none" stroke-linejoin="round"/>
  </symbol>
  <symbol id="icon-baby" viewBox="0 0 24 24">
    <circle cx="12" cy="12" r="7" stroke="currentColor" stroke-width="2" fill="none"/>
    <circle cx="10" cy="12" r="1" fill="currentColor"/>
    <circle cx="14" cy="12" r="1" fill="currentColor"/>
    <path d="M9.5 15C10.5 16 13.5 16 14.5 15" stroke="currentColor" stroke-width="2" fill="none" stroke-linecap="round"/>
  </symbol>
  <symbol id="icon-money" viewBox="0 0 24 24">
    <circle cx="12" cy="12" r="8" stroke="currentColor" stroke-width="2" fill="none"/>
    <path d="M12 8V16" stroke="currentColor" stroke-width="2" stroke-linecap="round"/>
    <path d="M9.5 10.5C9.5 9.7 10.4 9 12 9C13.6 9 14.5 9.7 14.5 10.5C14.5 11.3 13.6 12 12 12C10.4 12 9.5 12.7 9.5 13.5C9.5 14.3 10.4 15 12 15C13.6 15 14.5 14.3 14.5 13.5" stroke="currentColor" stroke-width="2" fill="none" stroke-linecap="round"/>
  </symbol>
  <symbol id="icon-chat" viewBox="0 0 24 24">
    <path d="M6 6H18C19.1 6 20 6.9 20 8V12C20 13.1 19.1 14 18 14H12L8 17V14H6C4.9 14 4 13.1 4 12V8C4 6.9 4.9 6 6 6Z" stroke="currentColor" stroke-width="2" fill="none" stroke-linejoin="round"/>
    <circle cx="9" cy="10" r="1" fill="currentColor"/>
    <circle cx="12" cy="10" r="1" fill="currentColor"/>
    <circle cx="15" cy="10" r="1" fill="currentColor"/>
  </symbol>
  <symbol id="icon-user" viewBox="0 0 24 24">
    <circle cx="12" cy="8.5" r="3.5" stroke="currentColor" stroke-width="2" fill="none"/>
    <path d="M5 19C6.5 15.5 9.2 14 12 14C14.8 14 17.5 15.5 19 19" stroke="currentColor" stroke-width="2" fill="none" stroke-linecap="round"/>
  </symbol>
  <symbol id="icon-bulb" viewBox="0 0 24 24">
    <path d="M12 4C9.2 4 7 6.2 7 9C7 11 8 12.4 9.2 13.3C10 13.9 10.5 14.8 10.5 15.8H13.5C13.5 14.8 14 13.9 14.8 13.3C16 12.4 17 11 17 9C17 6.2 14.8 4 12 4Z" stroke="currentColor" stroke-width="2" fill="none"/>
    <path d="M9.5 19H14.5" stroke="currentColor" stroke-width="2" stroke-linecap="round"/>
  </symbol>
  <symbol id="icon-folder" viewBox="0 0 24 24">
    <path d="M4 7H10L12 9H20V18H4V7Z" stroke="currentColor" stroke-width="2" fill="none" stroke-linejoin="round"/>
  </symbol>
  <symbol id="icon-ban" viewBox="0 0 24 24">
    <circle cx="12" cy="12" r="8" stroke="currentColor" stroke-width="2" fill="none"/>
    <path d="M7 7L17 17" stroke="currentColor" stroke-width="2" stroke-linecap="round"/>
  </symbol>
  <symbol id="icon-link" viewBox="0 0 24 24">
    <path d="M10 8H8C6.9 8 6 8.9 6 10V14C6 15.1 6.9 16 8 16H10" stroke="currentColor" stroke-width="2" fill="none" stroke-linecap="round"/>
    <path d="M14 8H16C17.1 8 18 8.9 18 10V14C18 15.1 17.1 16 16 16H14" stroke="currentColor" stroke-width="2" fill="none" stroke-linecap="round"/>
    <path d="M9 12H15" stroke="currentColor" stroke-width="2" stroke-linecap="round"/>
  </symbol>
  <symbol id="icon-mail" viewBox="0 0 24 24">
    <rect x="4" y="7" width="16" height="10" rx="2" stroke="currentColor" stroke-width="2" fill="none"/>
    <path d="M5 8L12 13L19 8" stroke="currentColor" stroke-width="2" fill="none" stroke-linecap="round" stroke-linejoin="round"/>
  </symbol>
</svg>
